<?xml version="1.0" encoding="UTF-8" standalone="no"?>
<!DOCTYPE svg PUBLIC "-//W3C//DTD SVG 1.1//EN" "http://www.w3.org/Graphics/SVG/1.1/DTD/svg11.dtd">
<svg width="100%" height="100%" viewBox="0 0 32 32" version="1.1" xmlns="http://www.w3.org/2000/svg" xmlns:xlink="http://www.w3.org/1999/xlink" xml:space="preserve" xmlns:serif="http://www.serif.com/" style="fill-rule:evenodd;clip-rule:evenodd;stroke-linejoin:round;stroke-miterlimit:2;">
    <g id="_x31_3_" serif:id="_x31_3">
        <path d="M21,10L21,8C21,7.447 20.553,7 20,7C19.447,7 19,7.447 19,8L19,10C19,10.553 19.447,11 20,11C20.553,11 21,10.553 21,10Z" style="fill:rgb(48,98,48);fill-rule:nonzero;"/>
        <path d="M24,10L24,8C24,7.447 23.553,7 23,7C22.447,7 22,7.447 22,8L22,10C22,10.553 22.447,11 23,11C23.553,11 24,10.553 24,10Z" style="fill:rgb(48,98,48);fill-rule:nonzero;"/>
        <path d="M27,10L27,8C27,7.447 26.553,7 26,7C25.447,7 25,7.447 25,8L25,10C25,10.553 25.447,11 26,11C26.553,11 27,10.553 27,10Z" style="fill:rgb(48,98,48);fill-rule:nonzero;"/>
        <path d="M23,19C23.553,19 24,18.553 24,18L24,16C24,15.447 23.553,15 23,15C22.447,15 22,15.447 22,16L22,18C22,18.553 22.447,19 23,19Z" style="fill:rgb(48,98,48);fill-rule:nonzero;"/>
        <path d="M27,18L27,16C27,15.447 26.553,15 26,15C25.447,15 25,15.447 25,16L25,18C25,18.553 25.447,19 26,19C26.553,19 27,18.553 27,18Z" style="fill:rgb(48,98,48);fill-rule:nonzero;"/>
        <path d="M21,26L21,24C21,23.447 20.553,23 20,23C19.447,23 19,23.447 19,24L19,26C19,26.553 19.447,27 20,27C20.553,27 21,26.553 21,26Z" style="fill:rgb(48,98,48);fill-rule:nonzero;"/>
        <path d="M22,26C22,26.553 22.447,27 23,27C23.553,27 24,26.553 24,26L24,24C24,23.447 23.553,23 23,23C22.447,23 22,23.447 22,24L22,26Z" style="fill:rgb(48,98,48);fill-rule:nonzero;"/>
        <path d="M27,26L27,24C27,23.447 26.553,23 26,23C25.447,23 25,23.447 25,24L25,26C25,26.553 25.447,27 26,27C26.553,27 27,26.553 27,26Z" style="fill:rgb(48,98,48);fill-rule:nonzero;"/>
        <path d="M27,4L13,4C12.018,4 11.153,4.481 10.606,5.211C10.319,5.005 10.188,5 10.004,5C9.724,5 9.469,5.117 9.286,5.305L9.002,5.588L6.872,3.458C7.07,3.081 7.024,2.61 6.707,2.293C6.316,1.902 5.684,1.902 5.293,2.293L2.293,5.293C1.902,5.684 1.902,6.316 2.293,6.707C2.488,6.902 2.744,7 3,7C3.16,7 3.313,6.948 3.458,6.872L5.588,9.002L5.293,9.298C4.902,9.689 4.902,10.321 5.293,10.712L10.293,15.712C10.488,15.907 10.744,16.005 11,16.005C11.256,16.005 11.512,15.907 11.707,15.712L12,15.419L13.293,16.712C13.488,16.907 13.744,17.005 14,17.005C14.256,17.005 14.512,16.907 14.707,16.712L15,16.419L20.293,21.712C20.488,21.907 20.744,22.005 21,22.005C21.256,22.005 21.512,21.907 21.707,21.712C22.098,21.321 22.098,20.689 21.707,20.298L16.414,15.005L16.707,14.712C17.098,14.321 17.098,13.689 16.707,13.298L15.414,12.005L15.707,11.712C16.093,11.326 16.098,10.703 15.719,10.311C14.014,8.545 12.88,7.376 12.094,6.589C12.252,6.243 12.596,6 13,6L27,6C27.552,6 28,6.448 28,7L28,12L18,12C17.447,12 17,12.447 17,13C17,13.553 17.447,14 18,14L28,14L28,20L24,20C23.447,20 23,20.447 23,21C23,21.553 23.447,22 24,22L28,22L28,27C28,27.552 27.552,28 27,28L13,28C12.449,28 12,27.552 12,27L12,22L17,22C17.553,22 18,21.553 18,21C18,20.447 17.553,20 17,20L12,20L12,18C12,17.447 11.552,17 11,17C10.448,17 10,17.447 10,18L10,27C10,28.654 11.346,30 13,30L27,30C28.654,30 30,28.654 30,27L30,7C30,5.346 28.654,4 27,4ZM4.914,5.5L5.5,4.914L7.588,7.002L7.002,7.588L4.914,5.5ZM14.586,14.005L14,14.591L13.414,14.005L14,13.419L14.586,14.005ZM13.597,10.993L11,13.591L7.414,10.005L10.038,7.382C10.071,7.414 10.111,7.454 10.146,7.488C10.236,7.645 10.363,7.771 10.52,7.86C11.324,8.664 12.461,9.823 13.597,10.993Z" style="fill:rgb(48,98,48);fill-rule:nonzero;"/>
    </g>
</svg>
