<?xml version="1.0" encoding="UTF-8" standalone="no"?>
<!DOCTYPE svg PUBLIC "-//W3C//DTD SVG 1.1//EN" "http://www.w3.org/Graphics/SVG/1.1/DTD/svg11.dtd">
<svg width="100%" height="100%" viewBox="0 0 24 24" version="1.1" xmlns="http://www.w3.org/2000/svg" xmlns:xlink="http://www.w3.org/1999/xlink" xml:space="preserve" xmlns:serif="http://www.serif.com/" style="fill-rule:evenodd;clip-rule:evenodd;">
    <g transform="matrix(1.33181,-0.00105734,0.00105734,1.33181,-3.99614,-3.94743)">
        <path d="M6,18.4L6,5.6C6,5.269 6.269,5 6.6,5L9.4,5C9.731,5 10,5.269 10,5.6L10,18.4C10,18.731 9.731,19 9.4,19L6.6,19C6.269,19 6,18.731 6,18.4Z" style="fill:none;fill-rule:nonzero;stroke:rgb(225,45,57);stroke-width:1.5px;"/>
    </g>
    <g transform="matrix(1.33181,-0.00105734,0.00105734,1.33181,-3.99614,-3.93897)">
        <path d="M14,18.4L14,5.6C14,5.269 14.269,5 14.6,5L17.4,5C17.731,5 18,5.269 18,5.6L18,18.4C18,18.731 17.731,19 17.4,19L14.6,19C14.269,19 14,18.731 14,18.4Z" style="fill:none;fill-rule:nonzero;stroke:rgb(225,45,57);stroke-width:1.5px;"/>
    </g>
</svg>
